<?xml version="1.0" standalone="no"?><!DOCTYPE svg PUBLIC "-//W3C//DTD SVG 1.1//EN" "http://www.w3.org/Graphics/SVG/1.1/DTD/svg11.dtd"><svg t="1674889419571" class="icon" viewBox="0 0 1024 1024" version="1.1" xmlns="http://www.w3.org/2000/svg" p-id="4874" xmlns:xlink="http://www.w3.org/1999/xlink" width="200" height="200"><path d="M945.667134 386.80254c-0.17688-2.764326-1.505379-4.49895-4.172571-5.185085-1.882524-0.483072-3.752056-1.015312-5.647771-1.311111-27.118813-4.258313-54.269605-8.415095-81.662433-10.312008-21.878566-1.524366-43.784914-2.488913-65.713047-3.475044-42.202587-1.88832-84.316633-0.965945-126.284379 4.340857-25.643813 3.241602-51.025205 7.882656-75.684086 15.852452-12.461551 4.027669-24.708248 8.728282-37.188786 12.689197-19.4696 6.164021-39.448254 8.939939-59.657752 5.148709-12.149762-2.280054-24.134037-5.755098-35.915249-9.568113-21.320345-6.896524-42.6247-13.692916-64.739706-17.75816-42.998847-7.945013-86.32687-11.585545-126.723881-11.153238-32.931872 0.050766-62.513416 1.173404-91.960051 4.706409-24.154223 2.900633-48.272271 6.126246-72.394716 9.396829-5.127124 0.70772-10.136527 2.214698-15.156324 3.537402-2.68458 0.703523-4.461375 2.488913-4.549715 5.476487-0.465484 14.245542-0.961548 28.487885-1.319905 42.749416-0.049367 2.143747 0.474278 4.30748 0.803455 6.449827 0.272615 1.811372 1.260345 3.064522 2.996368 3.826006 1.840552 0.803455 3.733269 1.609908 5.36916 2.742541 7.92043 5.518658 11.736243 13.869796 14.770386 22.540118 2.163933 6.197398 3.562185 12.651422 5.354769 18.969339 1.115244 3.940728 2.588845 7.788519 3.479441 11.765223 4.181365 18.597991 8.072727 37.281523 12.355623 55.85493 4.082832 17.716188 9.405623 35.039243 17.880077 51.249853 9.462185 18.11212 22.954837 31.984714 42.106852 39.957509 11.594139 4.826727 23.650965 7.90604 36.015382 9.872506 22.157177 3.502625 44.443467 3.931934 66.794913 2.309034 22.627059-1.634492 44.971309-5.060369 66.74115-11.639109 16.159844-4.899278 31.436486-11.71026 44.41009-22.750375 19.797377-16.877957 35.73677-36.921767 47.976472-59.91158 12.232306-22.959234 20.812689-47.371682 28.508271-72.122101 2.221894-7.103784 4.30748-14.254136 6.880535-21.229007 3.799824-10.274234 11.157635-16.625528 22.122401-18.310785 3.488035-0.543831 7.103784-0.690332 10.641385-0.483072 8.225023 0.483072 16.13526 2.219095 21.620541 9.086439 2.38878 2.987774 4.599082 6.29753 6.136439 9.791361 3.000765 6.803587 5.847835 13.7175 8.074126 20.787906 9.663648 30.592458 22.486354 59.740496 38.695564 87.427724 13.443485 23.007001 31.175463 41.592001 54.688721 54.416106 16.621131 9.072049 34.405473 14.848733 52.923718 18.454288 27.854115 5.402537 55.985442 6.729637 84.26307 5.483882 17.096808-0.738299 33.99635-2.913824 50.434805-7.827693 16.867764-5.060369 31.699108-13.279596 42.78719-27.358251 7.173536-9.089437 12.49333-19.228763 16.866165-29.886137 9.222947-22.464569 15.14773-45.898081 20.5009-69.508473 2.623621-11.547771 5.32419-23.083949 8.14088-34.595544 1.473601-6.016121 3.325745-11.93211 4.993614-17.891669 1.556145-5.585413 2.878848-11.248973 6.417849-16.080098 3.553391-4.85291 7.187927-9.608685 13.117107-11.716057 2.588845-0.923774 3.898557-2.725152 4.45418-5.182087 0.424912-1.897114 0.8846-3.831802 0.8846-5.739109 0.015989-8.522222 0.015989-17.046043-0.227646-25.552475C946.682245 399.008664 946.047076 392.920192 945.667134 386.80254M113.303676 413.77925c-9.221348 0-16.687886-1.830359-16.687886-4.090027 0-2.280054 7.466538-4.111812 16.687886-4.111812 9.201162 0 16.660304 1.836155 16.660304 4.111812C129.962581 411.944494 122.504638 413.77925 113.303676 413.77925M435.547595 503.903146c-5.843638 24.880931-15.482703 48.198322-28.383556 70.222189-7.040027 12.03504-15.031609 23.300003-25.169535 32.962451-13.376731 12.771941-29.481412 20.303634-47.157028 24.938891-35.789135 9.36505-71.984395 11.707262-108.59857 6.221981-7.171937-1.082066-14.245542-2.961592-21.302957-4.746982-14.534146-3.733269-25.56107-12.19753-33.948583-24.67507-9.272114-13.82043-14.963455-29.004335-18.780667-45.033667-4.977625-20.925812-7.778326-42.196791-9.888496-63.577894-1.237161-12.406388-0.999322-24.757614 0.533638-37.097448 0.770078-6.204593 1.26914-12.509319 2.675986-18.586398 4.977625-21.611747 18.341365-35.38301 39.823999-41.01759 19.634888-5.140115 39.636926-8.169861 59.824439-9.80875 14.977845-1.228367 29.993464-1.849146 39.686293-2.414763 34.459037 0.433706 63.395218 2.631016 91.860119 9.193767 11.627517 2.662795 23.402933 5.060369 34.038522 10.728326 5.231453 2.780315 10.30921 6.088672 14.873516 9.855118 7.541887 6.217784 11.389678 14.69064 13.000985 24.267347 3.351728 19.762601 1.444621 39.245392-3.083509 58.56989M881.448074 494.679c-0.75269 30.041232-5.813059 59.371946-16.522598 87.565631-4.32207 11.414261-10.203282 21.962709-19.043089 30.525704-9.859515 9.559319-22.1238 14.619688-35.158363 18.158489-16.374498 4.436592-33.12754 5.502669-49.989507 5.647771-25.466933 0.229045-50.552326-2.947202-75.423063-8.236616-24.64589-5.23585-44.296967-18.139701-59.931766-37.674457-20.042611-25.055013-32.882506-53.483538-40.069033-84.60104-3.325745-14.374454-6.127845-28.840446-5.763692-43.684782 0.161091-6.388868 0.818045-12.840094 1.979858-19.136026 2.863059-15.685565 12.49333-25.926622 26.999894-31.823823 14.574718-5.894204 29.820981-9.49836 45.193159-12.544095 17.112798-3.395298 34.372096-5.933377 51.779294-7.058814 13.592784-0.881802 27.217547-1.251751 36.434497-1.65188 36.466476 1.78539 68.34826 4.469969 99.343845 13.312774 5.702734 1.620102 11.153238 4.216141 16.538387 6.745626 5.111135 2.390179 9.038672 6.306124 11.576751 11.373689 2.8021 5.607198 5.682547 11.218594 7.895847 17.054837 2.583049 6.842761 3.158858 14.180186 3.43587 21.440663 0.4423 11.523187 1.016711 23.072357 0.719312 34.579555M910.218968 413.77925c-9.201162 0-16.667699-1.830359-16.667699-4.090027 0-2.280054 7.466338-4.111812 16.667699-4.111812 9.202361 0 16.667499 1.836155 16.667499 4.111812C926.886467 411.944494 919.419929 413.77925 910.218968 413.77925L910.218968 413.77925z" fill="#000000" p-id="4875"></path></svg>